<?xml version="1.0" encoding="UTF-8"?>
<svg id="Layer_1" data-name="Layer 1" xmlns="http://www.w3.org/2000/svg" xmlns:xlink="http://www.w3.org/1999/xlink" viewBox="0 0 1920 1080">
  <defs>
    <style>
      .cls-1, .cls-2, .cls-3 {
        stroke-width: 0px;
      }

      .cls-1, .cls-4 {
        fill: none;
      }

      .cls-2 {
        fill: #d4aa7b;
      }

      .cls-3 {
        fill: url(#Gold_Pattern_A_Batam_1);
      }

      .cls-4 {
        stroke: #d4aa7b;
        stroke-miterlimit: 10;
        stroke-width: 4px;
      }
    </style>
    <pattern id="Gold_Pattern_A_Batam_1" data-name="Gold_Pattern A_Batam 1" x="0" y="0" width="300" height="509.18" patternTransform="translate(3270 590)" patternUnits="userSpaceOnUse" viewBox="0 0 300 509.18">
      <g>
        <rect class="cls-1" width="300" height="509.18"/>
        <g>
          <g>
            <g>
              <path class="cls-2" d="m206.81,454.86s-1.43.82-2.83,2.94c-1.39,2.1-2.61,4.31-3.69,6.59-1.34,2.83-2.27,5.77-2.53,8.91-.3,3.51.2,6.87,1.96,9.97,1.83,3.22,4.39,5.7,7.67,7.44,1.99,1.05,4.1,1.69,6.36,1.77,2.4.08,4.73-.39,7.03-1.03,3.26-.9,6.09-2.64,8.78-4.62,3.23-2.37,5.92-5.27,8.12-8.61.47-.71.33-1.47-.36-1.94l-8.04-5.49-.91-.62c-.68-.66-.73-2.17-1.41-2.8l-3.79,5.51c.79.39,2.19-.1,2.94.36l.2.14c1.72,1.24,6.62,4.66,6.99,4.99.96.87.38,2.88-.43,3.61-1.3,1.17-2.64,2.28-4.11,3.23-2.8,1.79-5.82,3-9.17,3.17-4.01.2-7.64-.96-10.93-3.2-2.29-1.56-4.02-3.63-5.31-6.07-1.43-2.7-1.79-5.59-1.5-8.6.35-3.57,1.38-6.95,2.57-10.32,1.53-4.34,2.42-5.32,2.42-5.32Z"/>
              <path class="cls-2" d="m212.6,471.62s1.43-.82,2.83-2.94c1.39-2.1,2.61-4.31,3.69-6.59,1.34-2.83,2.27-5.77,2.53-8.91.3-3.51-.2-6.87-1.96-9.97-1.83-3.22-4.39-5.7-7.67-7.44-1.99-1.05-4.1-1.69-6.36-1.77-2.4-.08-4.73.39-7.03,1.03-3.26.9-6.09,2.64-8.78,4.62-3.23,2.37-5.92,5.27-8.12,8.61-.47.71-.33,1.47.36,1.94l8.04,5.49.91.62c.68.66.73,2.17,1.41,2.8.9-1.31,2.89-4.2,3.79-5.51-.79-.39-2.19.1-2.94-.36l-.2-.14c-1.72-1.24-6.62-4.66-6.99-4.99-.96-.87-.38-2.88.43-3.61,1.3-1.17,2.64-2.28,4.11-3.23,2.8-1.79,5.82-3,9.17-3.17,4.01-.2,7.64.96,10.93,3.2,2.29,1.56,4.02,3.63,5.31,6.07,1.43,2.7,1.79,5.59,1.5,8.6-.35,3.57-1.38,6.95-2.57,10.32-1.53,4.34-2.42,5.32-2.42,5.32Z"/>
            </g>
            <g>
              <path class="cls-2" d="m307.02,403.92s-1.43-.83-3.96-.98-5.04-.11-7.56.1c-3.12.26-6.13.92-8.98,2.26-3.19,1.5-5.85,3.61-7.65,6.68-1.87,3.19-2.74,6.65-2.61,10.37.08,2.26.59,4.39,1.65,6.39,1.13,2.12,2.7,3.9,4.4,5.57,2.41,2.37,5.34,3.96,8.39,5.3,3.66,1.61,7.52,2.49,11.52,2.73.84.05,1.44-.45,1.5-1.28l.74-9.71.08-1.1c.24-.92,1.52-1.72,1.72-2.62-1.59-.13-5.08-.4-6.67-.53.06.88,1.18,1.84,1.16,2.72l-.02.24c-.21,2.11-.72,8.06-.83,8.55-.27,1.26-2.31,1.77-3.34,1.44-1.66-.54-3.3-1.14-4.85-1.95-2.95-1.53-5.51-3.54-7.33-6.36-2.18-3.37-2.99-7.09-2.69-11.07.21-2.77,1.14-5.3,2.6-7.64,1.62-2.59,3.95-4.35,6.69-5.6,3.26-1.48,6.71-2.28,10.22-2.94,4.53-.85,5.81-.57,5.81-.57Z"/>
              <path class="cls-2" d="m295.39,417.31s1.43.83,3.96.98,5.04.11,7.56-.1c3.12-.26,6.13-.92,8.98-2.26,3.19-1.5,5.85-3.61,7.65-6.68,1.87-3.19,2.74-6.65,2.61-10.37-.08-2.26-.59-4.39-1.65-6.39-1.13-2.12-2.7-3.9-4.4-5.57-2.41-2.37-5.34-3.96-8.39-5.3-3.66-1.61-7.52-2.49-11.52-2.73-.84-.05-1.44.45-1.5,1.28l-.74,9.71-.08,1.1c-.24.92-1.52,1.72-1.72,2.62,1.59.13,5.08.4,6.67.53-.06-.88-1.18-1.84-1.16-2.72l.02-.24c.21-2.11.72-8.06.83-8.55.27-1.26,2.31-1.77,3.34-1.44,1.66.54,3.3,1.14,4.85,1.95,2.95,1.53,5.51,3.54,7.33,6.36,2.18,3.37,2.99,7.09,2.69,11.07-.21,2.77-1.14,5.3-2.6,7.64-1.62,2.59-3.95,4.35-6.69,5.6-3.26,1.48-6.71,2.28-10.22,2.94-4.53.85-5.81.57-5.81.57Z"/>
            </g>
            <path class="cls-2" d="m277.46,454.97c-3.34.44-6.7.77-10.07.95-4.42.23-8.81.09-13.14-.93-2.59-.61-5.09-1.48-7.38-2.87-2.93-1.78-5.11-4.23-6.41-7.41-1.34-3.28-1.89-6.68-1.31-10.19.76-4.54,3.34-7.62,7.68-9.21.26-.09.52-.17.78-.26.87-.18,1.74-.35,2.6-.53.34-.02.67-.04,1.01-.07,1.53-.12,3.05-.07,4.53.37,2.41.71,4.18,2.23,5.49,4.34,1.18,1.89,1.88,3.97,2.32,6.14.25,1.24.5,2.5.58,3.76.16,2.5.27,4.1-.66,6.41-.38.93-.46,1.17-1.47,1.35-.82.15-2.35.47-3.89.78-.14.03-.28.05-.43.06-.56.03-1.03-.16-1.31-.67-.26-.47-.16-1.07.24-1.51.13-.15.29-.27.44-.41,1.44-1.26,2.84-2.57,4.01-4.09.53-.69,1.08-1.4,1.39-2.21.16-.42.18-.8.11-1.35-.11-.85-.45-1.66-.71-2.49-.74-2.36-2.06-4.29-4.19-5.61-1.16-.72-2.37-1.34-3.78-1.4-2.02-.09-3.96.33-5.79,1.09-2.35.97-3.74,2.82-4.23,5.32-.3,1.54-.22,3.07.03,4.61.35,2.15,1.03,4.18,2.22,6.02,1.83,2.83,4.4,4.75,7.45,6.06,2.51,1.08,5.16,1.69,7.84,2.16,4.59.81,9.23,1.1,13.89.99.75-.02,1.5-.06,2.3-.1l15.9-2.14c.99-.13,1.97-.28,2.96-.41,3.37-.44,6.75-.67,10.14-.15,3.01.46,5.84,1.41,8.39,3.09,2.74,1.8,4.7,4.26,6,7.25.7,1.59,1.24,3.23,1.49,4.97.57,3.86-.15,7.42-2.21,10.76-2.2,3.56-5.1,6.34-8.61,8.58-3.48,2.22-7.22,3.76-11.24,4.66-.42.09-.84.18-1.27.25-.76.13-1.41-.3-1.55-1.05-.61-3.13-1.21-6.25-1.8-9.38-.43-2.27-.86-4.54-1.29-6.81-.59-3.11-1.18-6.21-1.75-9.32-.5-2.74-.98-5.48-1.46-8.23-.14-.83-.26-1.66-.39-2.49l-13.44,1.3Zm16.16-1.29c.63,2.53,1.25,5.06,1.89,7.59.92,3.61,1.88,7.21,2.77,10.82.76,3.07,1.46,6.15,2.2,9.22.43,1.78.88,3.56,1.36,5.33.35,1.3,1.67,1.9,2.78,1.31,1.14-.6,2.32-1.13,3.43-1.79,2.78-1.66,5.2-3.74,6.85-6.55,3.07-5.23,3.32-10.68.89-16.2-1.85-4.21-5.04-7.01-9.45-8.41-2.72-.86-5.5-1.57-8.34-1.59-1.1,0-4.4.29-4.4.29Z"/>
            <path class="cls-2" d="m241.2,502.87c-1.29,3.12-2.68,6.19-4.21,9.19-2.01,3.94-4.33,7.68-7.38,10.92-1.83,1.94-3.83,3.67-6.18,4.96-3.01,1.65-6.22,2.31-9.63,1.85-3.51-.48-6.73-1.7-9.48-3.97-3.56-2.93-4.93-6.7-4.13-11.25.05-.27.11-.53.17-.8.28-.84.56-1.68.85-2.52.15-.3.3-.6.45-.91.66-1.39,1.47-2.67,2.59-3.74,1.82-1.73,4.02-2.51,6.5-2.59,2.23-.07,4.38.36,6.47,1.06,1.2.4,2.42.82,3.55,1.38,2.24,1.11,3.69,1.82,5.22,3.78.62.79.79.98.44,1.95-.28.79-.76,2.27-1.27,3.76-.05.14-.1.27-.16.4-.26.5-.65.81-1.23.8-.54-.01-1.01-.4-1.19-.96-.06-.19-.09-.39-.13-.58-.38-1.88-.8-3.74-1.54-5.52-.33-.8-.67-1.63-1.22-2.31-.28-.35-.6-.55-1.12-.77-.79-.34-1.67-.44-2.51-.63-2.41-.54-4.74-.36-6.95.82-1.21.65-2.34,1.38-3.1,2.57-1.08,1.7-1.69,3.6-1.95,5.56-.33,2.52.57,4.65,2.49,6.33,1.18,1.03,2.55,1.73,4.01,2.28,2.04.78,4.13,1.2,6.32,1.09,3.36-.17,6.31-1.43,8.98-3.42,2.19-1.63,4.05-3.62,5.79-5.71,3-3.57,5.56-7.44,7.8-11.53.36-.66.69-1.33,1.06-2.04l6.09-14.84c.38-.92.74-1.85,1.12-2.76,1.31-3.14,2.8-6.18,4.94-8.86,1.9-2.37,4.14-4.35,6.88-5.72,2.93-1.47,6.04-1.94,9.28-1.57,1.73.2,3.42.55,5.05,1.19,3.63,1.44,6.36,3.84,8.22,7.3,1.98,3.68,2.94,7.59,3.13,11.74.18,4.12-.35,8.13-1.59,12.06-.13.41-.26.82-.41,1.22-.27.72-.96,1.07-1.68.82-3.01-1.04-6.02-2.08-9.03-3.13-2.18-.76-4.36-1.52-6.54-2.29-2.98-1.05-5.97-2.09-8.95-3.15-2.62-.94-5.24-1.89-7.86-2.85-.79-.29-1.57-.6-2.35-.9l-5.59,12.29Zm6.96-14.64c2.51.72,5.01,1.45,7.52,2.16,3.58,1.01,7.18,1.98,10.76,3.01,3.04.87,6.05,1.81,9.09,2.7,1.76.52,3.52,1.02,5.29,1.49,1.3.34,2.48-.5,2.52-1.76.05-1.29.18-2.58.16-3.87-.05-3.23-.63-6.37-2.25-9.21-3-5.27-7.59-8.22-13.58-8.87-4.57-.5-8.59.86-12.01,3.98-2.1,1.93-4.11,3.97-5.55,6.43-.56.95-1.95,3.95-1.95,3.95Z"/>
            <path class="cls-2" d="m264.71,556.23c2.05,2.68,4.02,5.42,5.85,8.24,2.41,3.71,4.49,7.59,5.76,11.85.76,2.55,1.26,5.15,1.2,7.83-.08,3.43-1.11,6.54-3.21,9.26-2.17,2.8-4.84,4.98-8.18,6.23-4.31,1.62-8.27.92-11.81-2.05-.21-.18-.41-.36-.61-.55l-1.76-1.99c-.19-.28-.37-.56-.56-.84-.87-1.26-1.58-2.61-1.94-4.11-.59-2.44-.16-4.74,1.01-6.92,1.05-1.96,2.5-3.61,4.16-5.07.95-.84,1.91-1.68,2.97-2.38,2.08-1.39,3.42-2.29,5.88-2.63.99-.14,1.24-.19,1.91.59.54.64,1.58,1.8,2.62,2.98.09.11.18.22.26.34.31.47.37.97.07,1.47-.28.46-.85.67-1.42.55-.19-.04-.38-.11-.57-.18-1.81-.61-3.64-1.17-5.55-1.43-.86-.11-1.75-.23-2.61-.1-.45.07-.78.25-1.23.58-.69.52-1.22,1.22-1.8,1.85-1.68,1.82-2.69,3.92-2.77,6.43-.04,1.37.03,2.72.68,3.97.93,1.79,2.27,3.26,3.84,4.47,2.01,1.55,4.31,1.83,6.72,1.01,1.48-.51,2.77-1.35,3.98-2.33,1.69-1.38,3.1-2.98,4.1-4.93,1.54-2.99,1.91-6.18,1.53-9.48-.32-2.71-1.11-5.31-2.04-7.87-1.6-4.38-3.66-8.54-6.08-12.52-.39-.64-.8-1.26-1.24-1.94l-9.8-12.7c-.61-.79-1.23-1.57-1.83-2.36-2.07-2.7-3.96-5.52-5.2-8.71-1.1-2.83-1.7-5.76-1.52-8.82.19-3.27,1.34-6.2,3.28-8.82,1.03-1.4,2.18-2.69,3.56-3.77,3.06-2.42,6.5-3.58,10.43-3.47,4.18.13,8.05,1.25,11.74,3.16,3.66,1.9,6.86,4.37,9.65,7.4.29.32.58.64.85.97.49.59.45,1.37-.13,1.87-2.4,2.09-4.81,4.17-7.22,6.25-1.75,1.51-3.5,3.02-5.25,4.52-2.4,2.06-4.79,4.13-7.2,6.17-2.12,1.8-4.26,3.59-6.39,5.38-.64.54-1.3,1.06-1.96,1.59l7.84,10.99Zm-9.2-13.35c1.88-1.81,3.76-3.61,5.63-5.43,2.67-2.6,5.3-5.23,7.98-7.81,2.27-2.19,4.6-4.34,6.88-6.52,1.33-1.26,2.64-2.54,3.94-3.84.95-.95.81-2.39-.26-3.06-1.09-.69-2.14-1.45-3.27-2.07-2.83-1.57-5.83-2.64-9.1-2.66-6.06-.04-10.91,2.46-14.48,7.33-2.72,3.71-3.55,7.87-2.56,12.39.62,2.79,1.38,5.55,2.79,8.02.54.96,2.45,3.66,2.45,3.66Z"/>
          </g>
          <path class="cls-4" d="m432.66,577.11v-135.86c0-5.36-2.86-10.31-7.5-12.99l-117.66-67.93c-4.64-2.68-10.36-2.68-15,0l-117.66,67.93c-4.64,2.68-7.5,7.63-7.5,12.99v135.86c0,5.36,2.86,10.31,7.5,12.99l117.66,67.93c4.64,2.68,10.36,2.68,15,0l117.66-67.93c4.64-2.68,7.5-7.63,7.5-12.99Z"/>
        </g>
        <g>
          <g>
            <g>
              <path class="cls-2" d="m94.6,461.73s0-1.65-1.13-3.92c-1.12-2.26-2.43-4.42-3.86-6.49-1.78-2.57-3.86-4.85-6.45-6.65-2.89-2.01-6.05-3.27-9.61-3.29-3.7-.02-7.13.95-10.28,2.93-1.91,1.2-3.51,2.7-4.71,4.62-1.27,2.04-2.03,4.29-2.63,6.6-.85,3.27-.76,6.6-.4,9.92.44,3.98,1.6,7.76,3.39,11.34.38.76,1.11,1.02,1.86.66l8.78-4.22.99-.48c.91-.26,2.25.45,3.13.18-.69-1.44-2.19-4.6-2.87-6.04-.73.49-1.01,1.94-1.78,2.37l-.22.1c-1.94.87-7.34,3.4-7.82,3.56-1.23.39-2.69-1.11-2.91-2.18-.37-1.71-.66-3.43-.74-5.18-.15-3.32.31-6.54,1.84-9.53,1.83-3.57,4.65-6.13,8.24-7.86,2.5-1.2,5.16-1.66,7.92-1.57,3.06.11,5.74,1.24,8.19,3,2.91,2.08,5.33,4.67,7.66,7.38,3,3.5,3.4,4.75,3.4,4.75Z"/>
              <path class="cls-2" d="m77.19,458.36s0,1.65,1.13,3.92c1.12,2.26,2.43,4.42,3.86,6.49,1.78,2.57,3.86,4.85,6.45,6.65,2.89,2.01,6.05,3.27,9.61,3.29,3.7.02,7.13-.95,10.28-2.93,1.91-1.2,3.51-2.7,4.71-4.62,1.27-2.04,2.03-4.29,2.63-6.6.85-3.27.76-6.6.4-9.92-.44-3.98-1.6-7.76-3.39-11.34-.38-.76-1.11-1.02-1.86-.66l-8.78,4.22-.99.48c-.91.26-2.25-.45-3.13-.18.69,1.44,2.19,4.6,2.87,6.04.73-.49,1.01-1.94,1.78-2.37l.22-.1c1.94-.87,7.34-3.4,7.82-3.56,1.23-.39,2.69,1.11,2.91,2.18.37,1.71.66,3.43.74,5.18.15,3.32-.31,6.54-1.84,9.53-1.83,3.57-4.65,6.13-8.24,7.86-2.5,1.2-5.16,1.66-7.92,1.57-3.06-.11-5.74-1.24-8.19-3-2.91-2.08-5.33-4.67-7.66-7.38-3-3.5-3.4-4.75-3.4-4.75Z"/>
            </g>
            <g>
              <path class="cls-2" d="m7.02,403.92s-1.43-.83-3.96-.98-5.04-.11-7.56.1c-3.12.26-6.13.92-8.98,2.26-3.19,1.5-5.85,3.61-7.65,6.68-1.87,3.19-2.74,6.65-2.61,10.37.08,2.26.59,4.39,1.65,6.39,1.13,2.12,2.7,3.9,4.4,5.57,2.41,2.37,5.34,3.96,8.39,5.3,3.66,1.61,7.52,2.49,11.52,2.73.84.05,1.44-.45,1.5-1.28l.74-9.71.08-1.1c.24-.92,1.52-1.72,1.72-2.62-1.59-.13-5.08-.4-6.67-.53.06.88,1.18,1.84,1.16,2.72l-.02.24c-.21,2.11-.72,8.06-.83,8.55-.27,1.26-2.31,1.77-3.34,1.44-1.66-.54-3.3-1.14-4.85-1.95-2.95-1.53-5.51-3.54-7.33-6.36-2.18-3.37-2.99-7.09-2.69-11.07.21-2.77,1.14-5.3,2.6-7.64,1.62-2.59,3.95-4.35,6.69-5.6,3.26-1.48,6.71-2.28,10.22-2.94,4.53-.85,5.81-.57,5.81-.57Z"/>
              <path class="cls-2" d="m-4.61,417.31s1.43.83,3.96.98,5.04.11,7.56-.1c3.12-.26,6.13-.92,8.98-2.26,3.19-1.5,5.85-3.61,7.65-6.68,1.87-3.19,2.74-6.65,2.61-10.37-.08-2.26-.59-4.39-1.65-6.39-1.13-2.12-2.7-3.9-4.4-5.57-2.41-2.37-5.34-3.96-8.39-5.3-3.66-1.61-7.52-2.49-11.52-2.73-.84-.05-1.44.45-1.5,1.28l-.74,9.71-.08,1.1c-.24.92-1.52,1.72-1.72,2.62,1.59.13,5.08.4,6.67.53-.06-.88-1.18-1.84-1.16-2.72l.02-.24c.21-2.11.72-8.06.83-8.55.27-1.26,2.31-1.77,3.34-1.44,1.66.54,3.3,1.14,4.85,1.95,2.95,1.53,5.51,3.54,7.33,6.36,2.18,3.37,2.99,7.09,2.69,11.07-.21,2.77-1.14,5.3-2.6,7.64-1.62,2.59-3.95,4.35-6.69,5.6-3.26,1.48-6.71,2.28-10.22,2.94-4.53.85-5.81.57-5.81.57Z"/>
            </g>
            <path class="cls-2" d="m58.08,518.25c1.29-3.12,2.68-6.19,4.21-9.19,2.01-3.94,4.33-7.68,7.38-10.92,1.83-1.94,3.83-3.67,6.18-4.96,3.01-1.65,6.22-2.31,9.63-1.85,3.51.48,6.73,1.7,9.48,3.97,3.56,2.93,4.93,6.7,4.13,11.25-.05.27-.11.53-.17.8l-.85,2.52c-.15.3-.3.6-.45.91-.66,1.39-1.47,2.67-2.59,3.74-1.82,1.73-4.02,2.51-6.5,2.59-2.23.07-4.38-.36-6.47-1.06-1.2-.4-2.42-.82-3.55-1.38-2.24-1.11-3.69-1.82-5.22-3.78-.62-.79-.79-.98-.44-1.95.28-.79.76-2.27,1.27-3.76.05-.14.1-.27.16-.4.26-.5.65-.81,1.23-.8.54.01,1.01.4,1.19.96.06.19.09.39.13.58.38,1.88.8,3.74,1.54,5.52.33.8.67,1.63,1.22,2.31.28.35.6.55,1.12.77.79.34,1.67.44,2.51.63,2.41.54,4.74.36,6.95-.82,1.21-.65,2.34-1.38,3.1-2.57,1.08-1.7,1.69-3.6,1.95-5.56.33-2.52-.57-4.65-2.49-6.33-1.18-1.03-2.55-1.73-4.01-2.28-2.04-.78-4.13-1.2-6.32-1.09-3.36.17-6.31,1.43-8.98,3.42-2.19,1.63-4.05,3.62-5.79,5.71-3,3.57-5.56,7.44-7.8,11.53-.36.66-.69,1.33-1.06,2.04l-6.09,14.84c-.38.92-.74,1.85-1.12,2.76-1.31,3.14-2.8,6.18-4.94,8.86-1.9,2.37-4.14,4.35-6.88,5.72-2.93,1.47-6.04,1.94-9.28,1.57-1.73-.2-3.42-.55-5.05-1.19-3.63-1.44-6.36-3.84-8.22-7.3-1.98-3.68-2.94-7.59-3.13-11.74-.18-4.12.35-8.13,1.59-12.06.13-.41.26-.82.41-1.22.27-.72.96-1.07,1.68-.82,3.01,1.04,6.02,2.08,9.03,3.13,2.18.76,4.36,1.52,6.54,2.29,2.98,1.05,5.97,2.09,8.95,3.15,2.62.94,5.24,1.89,7.86,2.85.79.29,1.57.6,2.35.9l5.59-12.29Zm-40.05,20.13c3,5.27,7.59,8.22,13.58,8.87,4.57.5,8.59-.86,12.01-3.98,2.1-1.93,4.11-3.97,5.55-6.43.56-.95,1.95-3.95,1.95-3.95-2.51-.72-5.01-1.45-7.52-2.16-3.58-1.01-7.18-1.98-10.76-3.01-3.04-.87-6.05-1.81-9.09-2.7-1.76-.52-3.52-1.02-5.29-1.49-1.3-.34-2.48.5-2.52,1.76-.05,1.29-.18,2.58-.16,3.87.05,3.23.63,6.37,2.25,9.21"/>
            <path class="cls-2" d="m36.62,461.91c-2.05-2.68-4.02-5.42-5.85-8.24-2.41-3.71-4.49-7.59-5.76-11.85-.76-2.55-1.26-5.15-1.2-7.83.08-3.43,1.11-6.54,3.21-9.26,2.17-2.8,4.84-4.98,8.18-6.23,4.31-1.62,8.27-.92,11.81,2.05.21.18.41.36.61.55.59.66,1.17,1.33,1.76,1.99.19.28.37.56.56.84.87,1.26,1.58,2.61,1.94,4.11.59,2.44.16,4.74-1.01,6.92-1.05,1.96-2.5,3.61-4.16,5.07-.95.84-1.91,1.68-2.97,2.38-2.08,1.39-3.42,2.29-5.88,2.63-.99.14-1.24.19-1.91-.59-.54-.64-1.58-1.8-2.62-2.98-.09-.11-.18-.22-.26-.34-.31-.47-.37-.97-.07-1.47.28-.46.85-.67,1.42-.55.19.04.38.11.57.18,1.81.61,3.64,1.17,5.55,1.43.86.11,1.75.23,2.61.1.45-.07.78-.25,1.23-.58.69-.52,1.22-1.22,1.8-1.85,1.68-1.82,2.69-3.92,2.77-6.43.04-1.37-.03-2.72-.68-3.97-.93-1.79-2.27-3.26-3.84-4.47-2.01-1.55-4.31-1.83-6.72-1.01-1.48.51-2.77,1.35-3.98,2.33-1.69,1.38-3.1,2.98-4.1,4.93-1.54,2.99-1.91,6.18-1.53,9.48.32,2.71,1.11,5.31,2.04,7.87,1.6,4.38,3.66,8.54,6.08,12.52.39.64.8,1.26,1.24,1.94l9.8,12.7c.61.79,1.23,1.57,1.83,2.36,2.07,2.7,3.96,5.52,5.2,8.71,1.1,2.83,1.7,5.76,1.52,8.82-.19,3.27-1.34,6.2-3.28,8.82-1.03,1.4-2.18,2.69-3.56,3.77-3.06,2.42-6.5,3.58-10.43,3.47-4.18-.13-8.05-1.25-11.74-3.16-3.66-1.9-6.86-4.37-9.65-7.4-.29-.32-.58-.64-.85-.97-.49-.59-.45-1.37.13-1.87,2.4-2.09,4.81-4.17,7.22-6.25,1.75-1.51,3.5-3.02,5.25-4.52,2.4-2.06,4.79-4.13,7.2-6.17,2.12-1.8,4.26-3.59,6.39-5.38.64-.54,1.3-1.06,1.96-1.59l-7.84-10.99Zm9.2,13.35c-1.88,1.81-3.76,3.61-5.63,5.43-2.67,2.6-5.3,5.23-7.98,7.81-2.27,2.19-4.6,4.34-6.88,6.52-1.33,1.26-2.64,2.54-3.94,3.84-.95.95-.81,2.39.26,3.06,1.09.69,2.14,1.45,3.27,2.07,2.83,1.57,5.83,2.64,9.1,2.66,6.06.04,10.91-2.46,14.48-7.33,2.72-3.71,3.55-7.87,2.56-12.39-.62-2.79-1.38-5.55-2.79-8.02-.54-.96-2.45-3.66-2.45-3.66Z"/>
            <path class="cls-2" d="m-22.54,454.97c-3.34.44-6.7.77-10.07.95-4.42.23-8.81.09-13.14-.93-2.59-.61-5.09-1.48-7.38-2.87-2.93-1.78-5.11-4.23-6.41-7.41-1.34-3.28-1.89-6.68-1.31-10.19.76-4.54,3.34-7.62,7.68-9.21.26-.09.52-.17.78-.26.87-.18,1.74-.35,2.6-.53.34-.02.67-.04,1.01-.07,1.53-.12,3.05-.07,4.53.37,2.41.71,4.18,2.23,5.49,4.34,1.18,1.89,1.88,3.97,2.32,6.14.25,1.24.5,2.5.58,3.76.16,2.5.27,4.1-.66,6.41-.38.93-.46,1.17-1.47,1.35-.82.15-2.35.47-3.89.78-.14.03-.28.05-.43.06-.56.03-1.03-.16-1.31-.67-.26-.47-.16-1.07.24-1.51.13-.15.29-.27.44-.41,1.44-1.26,2.84-2.57,4.01-4.09.53-.69,1.08-1.4,1.39-2.21.16-.42.18-.8.11-1.35-.11-.85-.45-1.66-.71-2.49-.74-2.36-2.06-4.29-4.19-5.61-1.16-.72-2.37-1.34-3.78-1.4-2.02-.09-3.96.33-5.79,1.09-2.35.97-3.74,2.82-4.23,5.32-.3,1.54-.22,3.07.03,4.61.35,2.15,1.03,4.18,2.22,6.02,1.83,2.83,4.4,4.75,7.45,6.06,2.51,1.08,5.16,1.69,7.84,2.16,4.59.81,9.23,1.1,13.89.99.75-.02,1.5-.06,2.3-.1l15.9-2.14c.99-.13,1.97-.28,2.96-.41,3.37-.44,6.75-.67,10.14-.15,3.01.46,5.84,1.41,8.39,3.09,2.74,1.8,4.7,4.26,6,7.25.7,1.59,1.24,3.23,1.49,4.97.57,3.86-.15,7.42-2.21,10.76-2.2,3.56-5.1,6.34-8.61,8.58-3.48,2.22-7.22,3.76-11.24,4.66-.42.09-.84.18-1.27.25-.76.13-1.41-.3-1.55-1.05-.61-3.13-1.21-6.25-1.8-9.38-.43-2.27-.86-4.54-1.29-6.81-.59-3.11-1.18-6.21-1.75-9.32-.5-2.74-.98-5.48-1.46-8.23-.14-.83-.26-1.66-.39-2.49l-13.44,1.3Zm16.16-1.29c.63,2.53,1.25,5.06,1.89,7.59.92,3.61,1.88,7.21,2.77,10.82.76,3.07,1.46,6.15,2.2,9.22.43,1.78.88,3.56,1.36,5.33.35,1.3,1.67,1.9,2.78,1.31,1.14-.6,2.32-1.13,3.43-1.79,2.78-1.66,5.2-3.74,6.85-6.55,3.07-5.23,3.32-10.68.89-16.2-1.85-4.21-5.04-7.01-9.45-8.41-2.72-.86-5.5-1.57-8.34-1.59-1.1,0-4.4.29-4.4.29Z"/>
          </g>
          <path class="cls-4" d="m132.66,577.11v-135.86c0-5.36-2.86-10.31-7.5-12.99L7.5,360.33c-4.64-2.68-10.36-2.68-15,0l-117.66,67.93c-4.64,2.68-7.5,7.63-7.5,12.99v135.86c0,5.36,2.86,10.31,7.5,12.99L-7.5,658.04c4.64,2.68,10.36,2.68,15,0l117.66-67.93c4.64-2.68,7.5-7.63,7.5-12.99Z"/>
        </g>
        <g>
          <g>
            <g>
              <path class="cls-2" d="m56.81,200.26s-1.43.82-2.83,2.94c-1.39,2.1-2.61,4.31-3.69,6.59-1.34,2.83-2.27,5.77-2.53,8.91-.3,3.51.2,6.87,1.96,9.97,1.83,3.22,4.39,5.7,7.67,7.44,1.99,1.05,4.1,1.69,6.36,1.77,2.4.08,4.73-.39,7.03-1.03,3.26-.9,6.09-2.64,8.78-4.62,3.23-2.37,5.92-5.27,8.12-8.61.47-.71.33-1.47-.36-1.94l-8.04-5.49-.91-.62c-.68-.66-.73-2.17-1.41-2.8l-3.79,5.51c.79.39,2.19-.1,2.94.36l.2.14c1.72,1.24,6.62,4.66,6.99,4.99.96.87.38,2.88-.43,3.61-1.3,1.17-2.64,2.28-4.11,3.23-2.8,1.79-5.82,3-9.17,3.17-4.01.2-7.64-.96-10.93-3.2-2.29-1.56-4.02-3.63-5.31-6.07-1.43-2.7-1.79-5.59-1.5-8.6.35-3.57,1.38-6.95,2.57-10.32,1.53-4.34,2.42-5.32,2.42-5.32Z"/>
              <path class="cls-2" d="m62.6,217.03s1.43-.82,2.83-2.94c1.39-2.1,2.61-4.31,3.69-6.59,1.34-2.83,2.27-5.77,2.53-8.91.3-3.51-.2-6.87-1.96-9.97-1.83-3.22-4.39-5.7-7.67-7.44-1.99-1.05-4.1-1.69-6.36-1.77-2.4-.08-4.73.39-7.03,1.03-3.26.9-6.09,2.64-8.78,4.62-3.23,2.37-5.92,5.27-8.12,8.61-.47.71-.33,1.47.36,1.94l8.04,5.49.91.62c.68.66.73,2.17,1.41,2.8.9-1.31,2.89-4.2,3.79-5.51-.79-.39-2.19.1-2.94-.36l-.2-.14c-1.72-1.24-6.62-4.66-6.99-4.99-.96-.87-.38-2.88.43-3.61,1.3-1.17,2.64-2.28,4.11-3.23,2.8-1.79,5.82-3,9.17-3.17,4.01-.2,7.64.96,10.93,3.2,2.29,1.56,4.02,3.63,5.31,6.07,1.43,2.7,1.79,5.59,1.5,8.6-.35,3.57-1.38,6.95-2.57,10.32-1.53,4.34-2.42,5.32-2.42,5.32Z"/>
            </g>
            <g>
              <path class="cls-2" d="m55.4,302.04s0,1.65,1.13,3.92c1.12,2.26,2.43,4.42,3.86,6.49,1.78,2.57,3.86,4.85,6.45,6.65,2.89,2.01,6.05,3.27,9.61,3.29,3.7.02,7.13-.95,10.28-2.93,1.91-1.2,3.51-2.7,4.71-4.62,1.27-2.04,2.03-4.29,2.63-6.6.85-3.27.76-6.6.4-9.92-.44-3.98-1.6-7.76-3.39-11.34-.38-.76-1.11-1.02-1.86-.66l-8.78,4.22-.99.48c-.91.26-2.25-.45-3.13-.18.69,1.44,2.19,4.6,2.87,6.04.73-.49,1.01-1.94,1.78-2.37l.22-.1c1.94-.87,7.34-3.4,7.82-3.56,1.23-.39,2.69,1.11,2.91,2.18.37,1.71.66,3.43.74,5.18.15,3.32-.31,6.54-1.84,9.53-1.83,3.57-4.65,6.13-8.24,7.86-2.5,1.2-5.16,1.66-7.92,1.57-3.06-.11-5.74-1.24-8.19-3-2.91-2.08-5.33-4.67-7.66-7.38-3-3.5-3.4-4.75-3.4-4.75Z"/>
              <path class="cls-2" d="m72.81,305.42s0-1.65-1.13-3.92c-1.12-2.26-2.43-4.42-3.86-6.49-1.78-2.57-3.86-4.85-6.45-6.65-2.89-2.01-6.05-3.27-9.61-3.29-3.7-.02-7.13.95-10.28,2.93-1.91,1.2-3.51,2.7-4.71,4.62-1.27,2.04-2.03,4.29-2.63,6.6-.85,3.27-.76,6.6-.4,9.92.44,3.98,1.6,7.76,3.39,11.34.38.76,1.11,1.02,1.86.66l8.78-4.22.99-.48c.91-.26,2.25.45,3.13.18-.69-1.44-2.19-4.6-2.87-6.04-.73.49-1.01,1.94-1.78,2.37l-.22.1c-1.94.87-7.34,3.4-7.82,3.56-1.23.39-2.69-1.11-2.91-2.18-.37-1.71-.66-3.43-.74-5.18-.15-3.32.31-6.54,1.84-9.53,1.83-3.57,4.65-6.13,8.24-7.86,2.5-1.2,5.16-1.66,7.92-1.57,3.06.11,5.74,1.24,8.19,3,2.91,2.08,5.33,4.67,7.66,7.38,3,3.5,3.4,4.75,3.4,4.75Z"/>
            </g>
            <g>
              <path class="cls-2" d="m142.98,359.86s1.43.83,3.96.98c2.52.16,5.04.11,7.56-.1,3.12-.26,6.13-.92,8.98-2.26,3.19-1.5,5.85-3.61,7.65-6.68,1.87-3.19,2.74-6.65,2.61-10.37-.08-2.26-.59-4.39-1.65-6.39-1.13-2.12-2.7-3.9-4.4-5.57-2.41-2.37-5.34-3.96-8.39-5.3-3.66-1.61-7.52-2.49-11.52-2.73-.84-.05-1.44.45-1.5,1.28l-.74,9.71-.08,1.1c-.24.92-1.52,1.72-1.72,2.62,1.59.13,5.08.4,6.67.53-.06-.88-1.18-1.84-1.16-2.72l.02-.24c.21-2.11.72-8.06.83-8.55.27-1.26,2.31-1.77,3.34-1.44,1.66.54,3.3,1.14,4.85,1.95,2.95,1.53,5.51,3.54,7.33,6.36,2.18,3.37,2.99,7.09,2.69,11.07-.21,2.77-1.14,5.3-2.6,7.64-1.62,2.59-3.95,4.35-6.69,5.6-3.26,1.48-6.71,2.28-10.22,2.94-4.53.85-5.81.57-5.81.57Z"/>
              <path class="cls-2" d="m154.61,346.46s-1.43-.83-3.96-.98-5.04-.11-7.56.1c-3.12.26-6.13.92-8.98,2.26-3.19,1.5-5.85,3.61-7.65,6.68-1.87,3.19-2.74,6.65-2.61,10.37.08,2.26.59,4.39,1.65,6.39,1.13,2.12,2.7,3.9,4.4,5.57,2.41,2.37,5.34,3.96,8.39,5.3,3.66,1.61,7.52,2.49,11.52,2.73.84.05,1.44-.45,1.5-1.28l.74-9.71.08-1.1c.24-.92,1.52-1.72,1.72-2.62-1.59-.13-5.08-.4-6.67-.53.06.88,1.18,1.84,1.16,2.72l-.02.24c-.21,2.11-.72,8.06-.83,8.55-.27,1.26-2.31,1.77-3.34,1.44-1.66-.54-3.3-1.14-4.85-1.95-2.95-1.53-5.51-3.54-7.33-6.36-2.18-3.37-2.99-7.09-2.69-11.07.21-2.77,1.14-5.3,2.6-7.64,1.62-2.59,3.95-4.35,6.69-5.6,3.26-1.48,6.71-2.28,10.22-2.94,4.53-.85,5.81-.57,5.81-.57Z"/>
            </g>
            <g>
              <path class="cls-2" d="m243.19,308.92s1.43-.82,2.83-2.94c1.39-2.1,2.61-4.31,3.69-6.59,1.34-2.83,2.27-5.77,2.53-8.91.3-3.51-.2-6.87-1.96-9.97-1.83-3.22-4.39-5.7-7.67-7.44-1.99-1.05-4.1-1.69-6.36-1.77-2.4-.08-4.73.39-7.03,1.03-3.26.9-6.09,2.64-8.78,4.62-3.23,2.37-5.92,5.27-8.12,8.61-.47.71-.33,1.47.36,1.94l8.04,5.49.91.62c.68.66.73,2.17,1.41,2.8.9-1.31,2.89-4.2,3.79-5.51-.79-.39-2.19.1-2.94-.36l-.2-.14c-1.72-1.24-6.62-4.66-6.99-4.99-.96-.87-.38-2.88.43-3.61,1.3-1.17,2.64-2.28,4.11-3.23,2.8-1.79,5.82-3,9.17-3.17,4.01-.2,7.64.96,10.93,3.2,2.29,1.56,4.02,3.63,5.31,6.07,1.43,2.7,1.79,5.59,1.5,8.6-.35,3.57-1.38,6.95-2.57,10.32-1.53,4.34-2.42,5.32-2.42,5.32Z"/>
              <path class="cls-2" d="m237.4,292.15s-1.43.82-2.83,2.94c-1.39,2.1-2.61,4.31-3.69,6.59-1.34,2.83-2.27,5.77-2.53,8.91-.3,3.51.2,6.87,1.96,9.97,1.83,3.22,4.39,5.7,7.67,7.44,1.99,1.05,4.1,1.69,6.36,1.77,2.4.08,4.73-.39,7.03-1.03,3.26-.9,6.09-2.64,8.78-4.62,3.23-2.37,5.92-5.27,8.12-8.61.47-.71.33-1.47-.36-1.94l-8.04-5.49-.91-.62c-.68-.66-.73-2.17-1.41-2.8-.9,1.31-2.89,4.2-3.79,5.51.79.39,2.19-.1,2.94.36l.2.14c1.72,1.24,6.62,4.66,6.99,4.99.96.87.38,2.88-.43,3.61-1.3,1.17-2.64,2.28-4.11,3.23-2.8,1.79-5.82,3-9.17,3.17-4.01.2-7.64-.96-10.93-3.2-2.29-1.56-4.02-3.63-5.31-6.07-1.43-2.7-1.79-5.59-1.5-8.6.35-3.57,1.38-6.95,2.57-10.32,1.53-4.34,2.42-5.32,2.42-5.32Z"/>
            </g>
            <g>
              <path class="cls-2" d="m244.6,207.14s0-1.65-1.13-3.92c-1.12-2.26-2.43-4.42-3.86-6.49-1.78-2.57-3.86-4.85-6.45-6.65-2.89-2.01-6.05-3.27-9.61-3.29-3.7-.02-7.13.95-10.28,2.93-1.91,1.2-3.51,2.7-4.71,4.62-1.27,2.04-2.03,4.29-2.63,6.6-.85,3.27-.76,6.6-.4,9.92.44,3.98,1.6,7.76,3.39,11.34.38.76,1.11,1.02,1.86.66l8.78-4.22.99-.48c.91-.26,2.25.45,3.13.18-.69-1.44-2.19-4.6-2.87-6.04-.73.49-1.01,1.94-1.78,2.37l-.22.1c-1.94.87-7.34,3.4-7.82,3.56-1.23.39-2.69-1.11-2.91-2.18-.37-1.71-.66-3.43-.74-5.18-.15-3.32.31-6.54,1.84-9.53,1.83-3.57,4.65-6.13,8.24-7.86,2.5-1.2,5.16-1.66,7.92-1.57,3.06.11,5.74,1.24,8.19,3,2.91,2.08,5.33,4.67,7.66,7.38,3,3.5,3.4,4.75,3.4,4.75Z"/>
              <path class="cls-2" d="m227.19,203.77s0,1.65,1.13,3.92c1.12,2.26,2.43,4.42,3.86,6.49,1.78,2.57,3.86,4.85,6.45,6.65,2.89,2.01,6.05,3.27,9.61,3.29,3.7.02,7.13-.95,10.28-2.93,1.91-1.2,3.51-2.7,4.71-4.62,1.27-2.04,2.03-4.29,2.63-6.6.85-3.27.76-6.6.4-9.92-.44-3.98-1.6-7.76-3.39-11.34-.38-.76-1.11-1.02-1.86-.66l-8.78,4.22-.99.48c-.91.26-2.25-.45-3.13-.18.69,1.44,2.19,4.6,2.87,6.04.73-.49,1.01-1.94,1.78-2.37l.22-.1c1.94-.87,7.34-3.4,7.82-3.56,1.23-.39,2.69,1.11,2.91,2.18.37,1.71.66,3.43.74,5.18.15,3.32-.31,6.54-1.84,9.53-1.83,3.57-4.65,6.13-8.24,7.86-2.5,1.2-5.16,1.66-7.92,1.57-3.06-.11-5.74-1.24-8.19-3-2.91-2.08-5.33-4.67-7.66-7.38-3-3.5-3.4-4.75-3.4-4.75Z"/>
            </g>
            <g>
              <path class="cls-2" d="m157.02,149.33s-1.43-.83-3.96-.98-5.04-.11-7.56.1c-3.12.26-6.13.92-8.98,2.26-3.19,1.5-5.85,3.61-7.65,6.68-1.87,3.19-2.74,6.65-2.61,10.37.08,2.26.59,4.39,1.65,6.39,1.13,2.12,2.7,3.9,4.4,5.57,2.41,2.37,5.34,3.96,8.39,5.3,3.66,1.61,7.52,2.49,11.52,2.73.84.05,1.44-.45,1.5-1.28l.74-9.71.08-1.1c.24-.92,1.52-1.72,1.72-2.62-1.59-.13-5.08-.4-6.67-.53.06.88,1.18,1.84,1.16,2.72l-.02.24c-.21,2.11-.72,8.06-.83,8.55-.27,1.26-2.31,1.77-3.34,1.44-1.66-.54-3.3-1.14-4.85-1.95-2.95-1.53-5.51-3.54-7.33-6.36-2.18-3.37-2.99-7.09-2.69-11.07.21-2.77,1.14-5.3,2.6-7.64,1.62-2.59,3.95-4.35,6.69-5.6,3.26-1.48,6.71-2.28,10.22-2.94,4.53-.85,5.81-.57,5.81-.57Z"/>
              <path class="cls-2" d="m145.39,162.72s1.43.83,3.96.98,5.04.11,7.56-.1c3.12-.26,6.13-.92,8.98-2.26,3.19-1.5,5.85-3.61,7.65-6.68,1.87-3.19,2.74-6.65,2.61-10.37-.08-2.26-.59-4.39-1.65-6.39-1.13-2.12-2.7-3.9-4.4-5.57-2.41-2.37-5.34-3.96-8.39-5.3-3.66-1.61-7.52-2.49-11.52-2.73-.84-.05-1.44.45-1.5,1.28l-.74,9.71-.08,1.1c-.24.92-1.52,1.72-1.72,2.62,1.59.13,5.08.4,6.67.53-.06-.88-1.18-1.84-1.16-2.72l.02-.24c.21-2.11.72-8.06.83-8.55.27-1.26,2.31-1.77,3.34-1.44,1.66.54,3.3,1.14,4.85,1.95,2.95,1.53,5.51,3.54,7.33,6.36,2.18,3.37,2.99,7.09,2.69,11.07-.21,2.77-1.14,5.3-2.6,7.64-1.62,2.59-3.95,4.35-6.69,5.6-3.26,1.48-6.71,2.28-10.22,2.94-4.53.85-5.81.57-5.81.57Z"/>
            </g>
            <path class="cls-2" d="m173.58,308.6c3.34-.44,6.7-.77,10.07-.95,4.42-.23,8.81-.09,13.14.93,2.59.61,5.09,1.48,7.38,2.87,2.93,1.78,5.11,4.23,6.41,7.41,1.34,3.28,1.89,6.68,1.31,10.19-.76,4.54-3.34,7.62-7.68,9.21-.26.09-.52.17-.78.26l-2.6.53c-.34.02-.67.04-1.01.07-1.53.12-3.05.07-4.53-.37-2.41-.71-4.18-2.23-5.49-4.34-1.18-1.89-1.88-3.97-2.32-6.14-.25-1.24-.5-2.5-.58-3.76-.16-2.5-.27-4.1.66-6.41.38-.93.46-1.17,1.47-1.35.82-.15,2.35-.47,3.89-.78.14-.03.28-.05.43-.06.56-.03,1.03.16,1.31.67.26.47.16,1.07-.24,1.51-.13.15-.29.27-.44.41-1.44,1.26-2.84,2.57-4.01,4.09-.53.69-1.08,1.4-1.39,2.21-.16.42-.18.8-.11,1.35.11.85.45,1.66.71,2.49.74,2.36,2.06,4.29,4.19,5.61,1.16.72,2.37,1.34,3.78,1.4,2.02.09,3.96-.33,5.79-1.09,2.35-.97,3.74-2.82,4.23-5.32.3-1.54.22-3.07-.03-4.61-.35-2.15-1.03-4.18-2.22-6.02-1.83-2.83-4.4-4.75-7.45-6.06-2.51-1.08-5.16-1.69-7.84-2.16-4.59-.81-9.23-1.1-13.89-.99-.75.02-1.5.06-2.3.1l-15.9,2.14c-.99.13-1.97.28-2.96.41-3.37.44-6.75.67-10.14.15-3.01-.46-5.84-1.41-8.39-3.09-2.74-1.8-4.7-4.26-6-7.25-.7-1.59-1.24-3.23-1.49-4.97-.57-3.86.15-7.42,2.21-10.76,2.2-3.56,5.1-6.34,8.61-8.58,3.48-2.22,7.22-3.76,11.24-4.66.42-.09.84-.18,1.27-.25.76-.13,1.41.3,1.55,1.05.61,3.13,1.21,6.25,1.8,9.38.43,2.27.86,4.54,1.29,6.81.59,3.11,1.18,6.21,1.75,9.32.5,2.74.98,5.48,1.46,8.23.14.83.26,1.66.39,2.49l13.44-1.3Zm-16.16,1.29c-.63-2.53-1.25-5.06-1.89-7.59-.92-3.61-1.88-7.21-2.77-10.82-.76-3.07-1.46-6.15-2.2-9.22-.43-1.78-.88-3.56-1.36-5.33-.35-1.3-1.67-1.9-2.78-1.31-1.14.6-2.32,1.13-3.43,1.79-2.78,1.66-5.2,3.74-6.85,6.55-3.07,5.23-3.32,10.68-.89,16.2,1.85,4.21,5.04,7.01,9.45,8.41,2.72.86,5.5,1.57,8.34,1.59,1.1,0,4.4-.29,4.4-.29Z"/>
            <path class="cls-2" d="m208.08,263.66c1.29-3.12,2.68-6.19,4.21-9.19,2.01-3.94,4.33-7.68,7.38-10.92,1.83-1.94,3.83-3.67,6.18-4.96,3.01-1.65,6.22-2.31,9.63-1.85,3.51.48,6.73,1.7,9.48,3.97,3.56,2.93,4.93,6.7,4.13,11.25-.05.27-.11.53-.17.8l-.85,2.52c-.15.3-.3.6-.45.91-.66,1.39-1.47,2.67-2.59,3.74-1.82,1.73-4.02,2.51-6.5,2.59-2.23.07-4.38-.36-6.47-1.06-1.2-.4-2.42-.82-3.55-1.38-2.24-1.11-3.69-1.82-5.22-3.78-.62-.79-.79-.98-.44-1.95.28-.79.76-2.27,1.27-3.76.05-.14.1-.27.16-.4.26-.5.65-.81,1.23-.8.54.01,1.01.4,1.19.96.06.19.09.39.13.58.38,1.88.8,3.74,1.54,5.52.33.8.67,1.63,1.22,2.31.28.35.6.55,1.12.77.79.34,1.67.44,2.51.63,2.41.54,4.74.36,6.95-.82,1.21-.65,2.34-1.38,3.1-2.57,1.08-1.7,1.69-3.6,1.95-5.56.33-2.52-.57-4.65-2.49-6.33-1.18-1.03-2.55-1.73-4.01-2.28-2.04-.78-4.13-1.2-6.32-1.09-3.36.17-6.31,1.43-8.98,3.42-2.19,1.63-4.05,3.62-5.79,5.71-3,3.57-5.56,7.44-7.8,11.53-.36.66-.69,1.33-1.06,2.04l-6.09,14.84c-.38.92-.74,1.85-1.12,2.76-1.31,3.14-2.8,6.18-4.94,8.86-1.9,2.37-4.14,4.35-6.88,5.72-2.93,1.47-6.04,1.94-9.28,1.57-1.73-.2-3.42-.55-5.05-1.19-3.63-1.44-6.36-3.84-8.22-7.3-1.98-3.68-2.94-7.59-3.13-11.74-.18-4.12.35-8.13,1.59-12.06.13-.41.26-.82.41-1.22.27-.72.96-1.07,1.68-.82,3.01,1.04,6.02,2.08,9.03,3.13,2.18.76,4.36,1.52,6.54,2.29,2.98,1.05,5.97,2.09,8.95,3.15,2.62.94,5.24,1.89,7.86,2.85.79.29,1.57.6,2.35.9l5.59-12.29Zm-40.05,20.13c3,5.27,7.59,8.22,13.58,8.87,4.57.5,8.59-.86,12.01-3.98,2.1-1.93,4.11-3.97,5.55-6.43.56-.95,1.95-3.95,1.95-3.95-2.51-.72-5.01-1.45-7.52-2.16-3.58-1.01-7.18-1.98-10.76-3.01-3.04-.87-6.05-1.81-9.09-2.7-1.76-.52-3.52-1.02-5.29-1.49-1.3-.34-2.48.5-2.52,1.76-.05,1.29-.18,2.58-.16,3.87.05,3.23.63,6.37,2.25,9.21"/>
            <path class="cls-2" d="m186.62,207.32c-2.05-2.68-4.02-5.42-5.85-8.24-2.41-3.71-4.49-7.59-5.76-11.85-.76-2.55-1.26-5.15-1.2-7.83.08-3.43,1.11-6.54,3.21-9.26,2.17-2.8,4.84-4.98,8.18-6.23,4.31-1.62,8.27-.92,11.81,2.05.21.18.41.36.61.55.59.66,1.17,1.33,1.76,1.99.19.28.37.56.56.84.87,1.26,1.58,2.61,1.94,4.11.59,2.44.16,4.74-1.01,6.92-1.05,1.96-2.5,3.61-4.16,5.07-.95.84-1.91,1.68-2.97,2.38-2.08,1.39-3.42,2.29-5.88,2.63-.99.14-1.24.19-1.91-.59-.54-.64-1.58-1.8-2.62-2.98-.09-.11-.18-.22-.26-.34-.31-.47-.37-.97-.07-1.47.28-.46.85-.67,1.42-.55.19.04.38.11.57.18,1.81.61,3.64,1.17,5.55,1.43.86.11,1.75.23,2.61.1.45-.07.78-.25,1.23-.58.69-.52,1.22-1.22,1.8-1.85,1.68-1.82,2.69-3.92,2.77-6.43.04-1.37-.03-2.72-.68-3.97-.93-1.79-2.27-3.26-3.84-4.47-2.01-1.55-4.31-1.83-6.72-1.01-1.48.51-2.77,1.35-3.98,2.33-1.69,1.38-3.1,2.98-4.1,4.93-1.54,2.99-1.91,6.18-1.53,9.48.32,2.71,1.11,5.31,2.04,7.87,1.6,4.38,3.66,8.54,6.08,12.52.39.64.8,1.26,1.24,1.94l9.8,12.7c.61.79,1.23,1.57,1.83,2.36,2.07,2.7,3.96,5.52,5.2,8.71,1.1,2.83,1.7,5.76,1.52,8.82-.19,3.27-1.34,6.2-3.28,8.82-1.03,1.4-2.18,2.69-3.56,3.77-3.06,2.42-6.5,3.58-10.43,3.47-4.18-.13-8.05-1.25-11.74-3.16-3.66-1.9-6.86-4.37-9.65-7.4-.29-.32-.58-.64-.85-.97-.49-.59-.45-1.37.13-1.87,2.4-2.09,4.81-4.17,7.22-6.25,1.75-1.51,3.5-3.02,5.25-4.52,2.4-2.06,4.79-4.13,7.2-6.17,2.12-1.8,4.26-3.59,6.39-5.38.64-.54,1.3-1.06,1.96-1.59l-7.84-10.99Zm9.2,13.35c-1.88,1.81-3.76,3.61-5.63,5.43-2.67,2.6-5.3,5.23-7.98,7.81-2.27,2.19-4.6,4.34-6.88,6.52-1.33,1.26-2.64,2.54-3.94,3.84-.95.95-.81,2.39.26,3.06,1.09.69,2.14,1.45,3.27,2.07,2.83,1.57,5.83,2.64,9.1,2.66,6.06.04,10.91-2.46,14.48-7.33,2.72-3.71,3.55-7.87,2.56-12.39-.62-2.79-1.38-5.55-2.79-8.02-.54-.96-2.45-3.66-2.45-3.66Z"/>
            <path class="cls-2" d="m127.46,200.38c-3.34.44-6.7.77-10.07.95-4.42.23-8.81.09-13.14-.93-2.59-.61-5.09-1.48-7.38-2.87-2.93-1.78-5.11-4.23-6.41-7.41-1.34-3.28-1.89-6.68-1.31-10.19.76-4.54,3.34-7.62,7.68-9.21.26-.09.52-.17.78-.26.87-.18,1.74-.35,2.6-.53.34-.02.67-.04,1.01-.07,1.53-.12,3.05-.07,4.53.37,2.41.71,4.18,2.23,5.49,4.34,1.18,1.89,1.88,3.97,2.32,6.14.25,1.24.5,2.5.58,3.76.16,2.5.27,4.1-.66,6.41-.38.93-.46,1.17-1.47,1.35-.82.15-2.35.47-3.89.78-.14.03-.28.05-.43.06-.56.03-1.03-.16-1.31-.67-.26-.47-.16-1.07.24-1.51.13-.15.29-.27.44-.41,1.44-1.26,2.84-2.57,4.01-4.09.53-.69,1.08-1.4,1.39-2.21.16-.42.18-.8.11-1.35-.11-.85-.45-1.66-.71-2.49-.74-2.36-2.06-4.29-4.19-5.61-1.16-.72-2.37-1.34-3.78-1.4-2.02-.09-3.96.33-5.79,1.09-2.35.97-3.74,2.82-4.23,5.32-.3,1.54-.22,3.07.03,4.61.35,2.15,1.03,4.18,2.22,6.02,1.83,2.83,4.4,4.75,7.45,6.06,2.51,1.08,5.16,1.69,7.84,2.16,4.59.81,9.23,1.1,13.89.99.75-.02,1.5-.06,2.3-.1l15.9-2.14c.99-.13,1.97-.28,2.96-.41,3.37-.44,6.75-.67,10.14-.15,3.01.46,5.84,1.41,8.39,3.09,2.74,1.8,4.7,4.26,6,7.25.7,1.59,1.24,3.23,1.49,4.97.57,3.86-.15,7.42-2.21,10.76-2.2,3.56-5.1,6.34-8.61,8.58-3.48,2.22-7.22,3.76-11.24,4.66-.42.09-.84.18-1.27.25-.76.13-1.41-.3-1.55-1.05-.61-3.13-1.21-6.25-1.8-9.38-.43-2.27-.86-4.54-1.29-6.81-.59-3.11-1.18-6.21-1.75-9.32-.5-2.74-.98-5.48-1.46-8.23-.14-.83-.26-1.66-.39-2.49l-13.44,1.3Zm16.16-1.29c.63,2.53,1.25,5.06,1.89,7.59.92,3.61,1.88,7.21,2.77,10.82.76,3.07,1.46,6.15,2.2,9.22.43,1.78.88,3.56,1.36,5.33.35,1.3,1.67,1.9,2.78,1.31,1.14-.6,2.32-1.13,3.43-1.79,2.78-1.66,5.2-3.74,6.85-6.55,3.07-5.23,3.32-10.68.89-16.2-1.85-4.21-5.04-7.01-9.45-8.41-2.72-.86-5.5-1.57-8.34-1.59-1.1,0-4.4.29-4.4.29Z"/>
            <path class="cls-2" d="m91.2,248.27c-1.29,3.12-2.68,6.19-4.21,9.19-2.01,3.94-4.33,7.68-7.38,10.92-1.83,1.94-3.83,3.67-6.18,4.96-3.01,1.65-6.22,2.31-9.63,1.85-3.51-.48-6.73-1.7-9.48-3.97-3.56-2.93-4.93-6.7-4.13-11.25.05-.27.11-.53.17-.8.28-.84.56-1.68.85-2.52.15-.3.3-.6.45-.91.66-1.39,1.47-2.67,2.59-3.74,1.82-1.73,4.02-2.51,6.5-2.59,2.23-.07,4.38.36,6.47,1.06,1.2.4,2.42.82,3.55,1.38,2.24,1.11,3.69,1.82,5.22,3.78.62.79.79.98.44,1.95-.28.79-.76,2.27-1.27,3.76-.05.14-.1.27-.16.4-.26.5-.65.81-1.23.8-.54-.01-1.01-.4-1.19-.96-.06-.19-.09-.39-.13-.58-.38-1.88-.8-3.74-1.54-5.52-.33-.8-.67-1.63-1.22-2.31-.28-.35-.6-.55-1.12-.77-.79-.34-1.67-.44-2.51-.63-2.41-.54-4.74-.36-6.95.82-1.21.65-2.34,1.38-3.1,2.57-1.08,1.7-1.69,3.6-1.95,5.56-.33,2.52.57,4.65,2.49,6.33,1.18,1.03,2.55,1.73,4.01,2.28,2.04.78,4.13,1.2,6.32,1.09,3.36-.17,6.31-1.43,8.98-3.42,2.19-1.63,4.05-3.62,5.79-5.71,3-3.57,5.56-7.44,7.8-11.53.36-.66.69-1.33,1.06-2.04l6.09-14.84c.38-.92.74-1.85,1.12-2.76,1.31-3.14,2.8-6.18,4.94-8.86,1.9-2.37,4.14-4.35,6.88-5.72,2.93-1.47,6.04-1.94,9.28-1.57,1.73.2,3.42.55,5.05,1.19,3.63,1.44,6.36,3.84,8.22,7.3,1.98,3.68,2.94,7.59,3.13,11.74.18,4.12-.35,8.13-1.59,12.06-.13.41-.26.82-.41,1.22-.27.72-.96,1.07-1.68.82-3.01-1.04-6.02-2.08-9.03-3.13-2.18-.76-4.36-1.52-6.54-2.29-2.98-1.05-5.97-2.09-8.95-3.15-2.62-.94-5.24-1.89-7.86-2.85-.79-.29-1.57-.6-2.35-.9l-5.59,12.29Zm6.96-14.64c2.51.72,5.01,1.45,7.52,2.16,3.58,1.01,7.18,1.98,10.76,3.01,3.04.87,6.05,1.81,9.09,2.7,1.76.52,3.52,1.02,5.29,1.49,1.3.34,2.48-.5,2.52-1.76.05-1.29.18-2.58.16-3.87-.05-3.23-.63-6.37-2.25-9.21-3-5.27-7.59-8.22-13.58-8.87-4.57-.5-8.59.86-12.01,3.98-2.1,1.93-4.11,3.97-5.55,6.43-.56.95-1.95,3.95-1.95,3.95Z"/>
            <path class="cls-2" d="m114.71,301.63c2.05,2.68,4.02,5.42,5.85,8.24,2.41,3.71,4.49,7.59,5.76,11.85.76,2.55,1.26,5.15,1.2,7.83-.08,3.43-1.11,6.54-3.21,9.26-2.17,2.8-4.84,4.98-8.18,6.23-4.31,1.62-8.27.92-11.81-2.05-.21-.18-.41-.36-.61-.55l-1.76-1.99c-.19-.28-.37-.56-.56-.84-.87-1.26-1.58-2.61-1.94-4.11-.59-2.44-.16-4.74,1.01-6.92,1.05-1.96,2.5-3.61,4.16-5.07.95-.84,1.91-1.68,2.97-2.38,2.08-1.39,3.42-2.29,5.88-2.63.99-.14,1.24-.19,1.91.59.54.64,1.58,1.8,2.62,2.98.09.11.18.22.26.34.31.47.37.97.07,1.47-.28.46-.85.67-1.42.55-.19-.04-.38-.11-.57-.18-1.81-.61-3.64-1.17-5.55-1.43-.86-.11-1.75-.23-2.61-.1-.45.07-.78.25-1.23.58-.69.52-1.22,1.22-1.8,1.85-1.68,1.82-2.69,3.92-2.77,6.43-.04,1.37.03,2.72.68,3.97.93,1.79,2.27,3.26,3.84,4.47,2.01,1.55,4.31,1.83,6.72,1.01,1.48-.51,2.77-1.35,3.98-2.33,1.69-1.38,3.1-2.98,4.1-4.93,1.54-2.99,1.91-6.18,1.53-9.48-.32-2.71-1.11-5.31-2.04-7.87-1.6-4.38-3.66-8.54-6.08-12.52-.39-.64-.8-1.26-1.24-1.94l-9.8-12.7c-.61-.79-1.23-1.57-1.83-2.36-2.07-2.7-3.96-5.52-5.2-8.71-1.1-2.83-1.7-5.76-1.52-8.82.19-3.27,1.34-6.2,3.28-8.82,1.03-1.4,2.18-2.69,3.56-3.77,3.06-2.42,6.5-3.58,10.43-3.47,4.18.13,8.05,1.25,11.74,3.16,3.66,1.9,6.86,4.37,9.65,7.4.29.32.58.64.85.97.49.59.45,1.37-.13,1.87-2.4,2.09-4.81,4.17-7.22,6.25-1.75,1.51-3.5,3.02-5.25,4.52-2.4,2.06-4.79,4.13-7.2,6.17-2.12,1.8-4.26,3.59-6.39,5.38-.64.54-1.3,1.06-1.96,1.59l7.84,10.99Zm-9.2-13.35c1.88-1.81,3.76-3.61,5.63-5.43,2.67-2.6,5.3-5.23,7.98-7.81,2.27-2.19,4.6-4.34,6.88-6.52,1.33-1.26,2.64-2.54,3.94-3.84.95-.95.81-2.39-.26-3.06-1.09-.69-2.14-1.45-3.27-2.07-2.83-1.57-5.83-2.64-9.1-2.66-6.06-.04-10.91,2.46-14.48,7.33-2.72,3.71-3.55,7.87-2.56,12.39.62,2.79,1.38,5.55,2.79,8.02.54.96,2.45,3.66,2.45,3.66Z"/>
          </g>
          <path class="cls-4" d="m282.66,322.52v-135.86c0-5.36-2.86-10.31-7.5-12.99l-117.66-67.93c-4.64-2.68-10.36-2.68-15,0L24.84,173.67c-4.64,2.68-7.5,7.63-7.5,12.99v135.86c0,5.36,2.86,10.31,7.5,12.99l117.66,67.93c4.64,2.68,10.36,2.68,15,0l117.66-67.93c4.64-2.68,7.5-7.63,7.5-12.99Z"/>
        </g>
        <g>
          <g>
            <g>
              <path class="cls-2" d="m205.4,47.45s0,1.65,1.13,3.92c1.12,2.26,2.43,4.42,3.86,6.49,1.78,2.57,3.86,4.85,6.45,6.65,2.89,2.01,6.05,3.27,9.61,3.29,3.7.02,7.13-.95,10.28-2.93,1.91-1.2,3.51-2.7,4.71-4.62,1.27-2.04,2.03-4.29,2.63-6.6.85-3.27.76-6.6.4-9.92-.44-3.98-1.6-7.76-3.39-11.34-.38-.76-1.11-1.02-1.86-.66l-8.78,4.22-.99.48c-.91.26-2.25-.45-3.13-.18l2.87,6.04c.73-.49,1.01-1.94,1.78-2.37l.22-.1c1.94-.87,7.34-3.4,7.82-3.56,1.23-.39,2.69,1.11,2.91,2.18.37,1.71.66,3.43.74,5.18.15,3.32-.31,6.54-1.84,9.53-1.83,3.57-4.65,6.13-8.24,7.86-2.5,1.2-5.16,1.66-7.92,1.57-3.06-.11-5.74-1.24-8.19-3-2.91-2.08-5.33-4.67-7.66-7.38-3-3.5-3.4-4.75-3.4-4.75Z"/>
              <path class="cls-2" d="m222.81,50.82s0-1.65-1.13-3.92c-1.12-2.26-2.43-4.42-3.86-6.49-1.78-2.57-3.86-4.85-6.45-6.65-2.89-2.01-6.05-3.27-9.61-3.29-3.7-.02-7.13.95-10.28,2.93-1.91,1.2-3.51,2.7-4.71,4.62-1.27,2.04-2.03,4.29-2.63,6.6-.85,3.27-.76,6.6-.4,9.92.44,3.98,1.6,7.76,3.39,11.34.38.76,1.11,1.02,1.86.66l8.78-4.22.99-.48c.91-.26,2.25.45,3.13.18-.69-1.44-2.19-4.6-2.87-6.04-.73.49-1.01,1.94-1.78,2.37l-.22.1c-1.94.87-7.34,3.4-7.82,3.56-1.23.39-2.69-1.11-2.91-2.18-.37-1.71-.66-3.43-.74-5.18-.15-3.32.31-6.54,1.84-9.53,1.83-3.57,4.65-6.13,8.24-7.86,2.5-1.2,5.16-1.66,7.92-1.57,3.06.11,5.74,1.24,8.19,3,2.91,2.08,5.33,4.67,7.66,7.38,3,3.5,3.4,4.75,3.4,4.75Z"/>
            </g>
            <g>
              <path class="cls-2" d="m292.98,105.26s1.43.83,3.96.98c2.52.16,5.04.11,7.56-.1,3.12-.26,6.13-.92,8.98-2.26,3.19-1.5,5.85-3.61,7.65-6.68,1.87-3.19,2.74-6.65,2.61-10.37-.08-2.26-.59-4.39-1.65-6.39-1.13-2.12-2.7-3.9-4.4-5.57-2.41-2.37-5.34-3.96-8.39-5.3-3.66-1.61-7.52-2.49-11.52-2.73-.84-.05-1.44.45-1.5,1.28l-.74,9.71-.08,1.1c-.24.92-1.52,1.72-1.72,2.62,1.59.13,5.08.4,6.67.53-.06-.88-1.18-1.84-1.16-2.72l.02-.24c.21-2.11.72-8.06.83-8.55.27-1.26,2.31-1.77,3.34-1.44,1.66.54,3.3,1.14,4.85,1.95,2.95,1.53,5.51,3.54,7.33,6.36,2.18,3.37,2.99,7.09,2.69,11.07-.21,2.77-1.14,5.3-2.6,7.64-1.62,2.59-3.95,4.35-6.69,5.6-3.26,1.48-6.71,2.28-10.22,2.94-4.53.85-5.81.57-5.81.57Z"/>
              <path class="cls-2" d="m304.61,91.87s-1.43-.83-3.96-.98-5.04-.11-7.56.1c-3.12.26-6.13.92-8.98,2.26-3.19,1.5-5.85,3.61-7.65,6.68-1.87,3.19-2.74,6.65-2.61,10.37.08,2.26.59,4.39,1.65,6.39,1.13,2.12,2.7,3.9,4.4,5.57,2.41,2.37,5.34,3.96,8.39,5.3,3.66,1.61,7.52,2.49,11.52,2.73.84.05,1.44-.45,1.5-1.28l.74-9.71.08-1.1c.24-.92,1.52-1.72,1.72-2.62-1.59-.13-5.08-.4-6.67-.53.06.88,1.18,1.84,1.16,2.72l-.02.24c-.21,2.11-.72,8.06-.83,8.55-.27,1.26-2.31,1.77-3.34,1.44-1.66-.54-3.3-1.14-4.85-1.95-2.95-1.53-5.51-3.54-7.33-6.36-2.18-3.37-2.99-7.09-2.69-11.07.21-2.77,1.14-5.3,2.6-7.64,1.62-2.59,3.95-4.35,6.69-5.6,3.26-1.48,6.71-2.28,10.22-2.94,4.53-.85,5.81-.57,5.81-.57Z"/>
            </g>
            <path class="cls-2" d="m323.58,54c3.34-.44,6.7-.77,10.07-.95,4.42-.23,8.81-.09,13.14.93,2.59.61,5.09,1.48,7.38,2.87,2.93,1.78,5.11,4.23,6.41,7.41,1.34,3.28,1.89,6.68,1.31,10.19-.76,4.54-3.34,7.62-7.68,9.21-.26.09-.52.17-.78.26l-2.6.53c-.34.02-.67.04-1.01.07-1.53.12-3.05.07-4.53-.37-2.41-.71-4.18-2.23-5.49-4.34-1.18-1.89-1.88-3.97-2.32-6.14-.25-1.24-.5-2.5-.58-3.76-.16-2.5-.27-4.1.66-6.41.38-.93.46-1.17,1.47-1.35.82-.15,2.35-.47,3.89-.78.14-.03.28-.05.43-.06.56-.03,1.03.16,1.31.67.26.47.16,1.07-.24,1.51-.13.15-.29.27-.44.41-1.44,1.26-2.84,2.57-4.01,4.09-.53.69-1.08,1.4-1.39,2.21-.16.42-.18.8-.11,1.35.11.85.45,1.66.71,2.49.74,2.36,2.06,4.29,4.19,5.61,1.16.72,2.37,1.34,3.78,1.4,2.02.09,3.96-.33,5.79-1.09,2.35-.97,3.74-2.82,4.23-5.32.3-1.54.22-3.07-.03-4.61-.35-2.15-1.03-4.18-2.22-6.02-1.83-2.83-4.4-4.75-7.45-6.06-2.51-1.08-5.16-1.69-7.84-2.16-4.59-.81-9.23-1.1-13.89-.99-.75.02-1.5.06-2.3.1l-15.9,2.14c-.99.13-1.97.28-2.96.41-3.37.44-6.75.67-10.14.15-3.01-.46-5.84-1.41-8.39-3.09-2.74-1.8-4.7-4.26-6-7.25-.7-1.59-1.24-3.23-1.49-4.97-.57-3.86.15-7.42,2.21-10.76,2.2-3.56,5.1-6.34,8.61-8.58,3.48-2.22,7.22-3.76,11.24-4.66.42-.09.84-.18,1.27-.25.76-.13,1.41.3,1.55,1.05.61,3.13,1.21,6.25,1.8,9.38.43,2.27.86,4.54,1.29,6.81.59,3.11,1.18,6.21,1.75,9.32.5,2.74.98,5.48,1.46,8.23.14.83.26,1.66.39,2.49l13.44-1.3Zm-16.16,1.29c-.63-2.53-1.25-5.06-1.89-7.59-.92-3.61-1.88-7.21-2.77-10.82-.76-3.07-1.46-6.15-2.2-9.22-.43-1.78-.88-3.56-1.36-5.33-.35-1.3-1.67-1.9-2.78-1.31-1.14.6-2.32,1.13-3.43,1.79-2.78,1.66-5.2,3.74-6.85,6.55-3.07,5.23-3.32,10.68-.89,16.2,1.85,4.21,5.04,7.01,9.45,8.41,2.72.86,5.5,1.57,8.34,1.59,1.1,0,4.4-.29,4.4-.29Z"/>
            <path class="cls-2" d="m241.2-6.32c-1.29,3.12-2.68,6.19-4.21,9.19-2.01,3.94-4.33,7.68-7.38,10.92-1.83,1.94-3.83,3.67-6.18,4.96-3.01,1.65-6.22,2.31-9.63,1.85-3.51-.48-6.73-1.7-9.48-3.97-3.56-2.93-4.93-6.7-4.13-11.25.05-.27.11-.53.17-.8.28-.84.56-1.68.85-2.52.15-.3.3-.6.45-.91.66-1.39,1.47-2.67,2.59-3.74,1.82-1.73,4.02-2.51,6.5-2.59,2.23-.07,4.38.36,6.47,1.06,1.2.4,2.42.82,3.55,1.38,2.24,1.11,3.69,1.82,5.22,3.78.62.79.79.98.44,1.95-.28.79-.76,2.27-1.27,3.76-.05.14-.1.27-.16.4-.26.5-.65.81-1.23.8-.54-.01-1.01-.4-1.19-.96-.06-.19-.09-.39-.13-.58-.38-1.88-.8-3.74-1.54-5.52-.33-.8-.67-1.63-1.22-2.31-.28-.35-.6-.55-1.12-.77-.79-.34-1.67-.44-2.51-.63-2.41-.54-4.74-.36-6.95.82-1.21.65-2.34,1.38-3.1,2.57-1.08,1.7-1.69,3.6-1.95,5.56-.33,2.52.57,4.65,2.49,6.33,1.18,1.03,2.55,1.73,4.01,2.28,2.04.78,4.13,1.2,6.32,1.09,3.36-.17,6.31-1.43,8.98-3.42,2.19-1.63,4.05-3.62,5.79-5.71,3-3.57,5.56-7.44,7.8-11.53.36-.66.69-1.33,1.06-2.04l6.09-14.84c.38-.92.74-1.85,1.12-2.76,1.31-3.14,2.8-6.18,4.94-8.86,1.9-2.37,4.14-4.35,6.88-5.72,2.93-1.47,6.04-1.94,9.28-1.57,1.73.2,3.42.55,5.05,1.19,3.63,1.44,6.36,3.84,8.22,7.3,1.98,3.68,2.94,7.59,3.13,11.74.18,4.12-.35,8.13-1.59,12.06-.13.41-.26.82-.41,1.22-.27.72-.96,1.07-1.68.82-3.01-1.04-6.02-2.08-9.03-3.13-2.18-.76-4.36-1.52-6.54-2.29-2.98-1.05-5.97-2.09-8.95-3.15-2.62-.94-5.24-1.89-7.86-2.85-.79-.29-1.57-.6-2.35-.9l-5.59,12.29Zm6.96-14.64c2.51.72,5.01,1.45,7.52,2.16,3.58,1.01,7.18,1.98,10.76,3.01,3.04.87,6.05,1.81,9.09,2.7,1.76.52,3.52,1.02,5.29,1.49,1.3.34,2.48-.5,2.52-1.76.05-1.29.18-2.58.16-3.87-.05-3.23-.63-6.37-2.25-9.21-3-5.27-7.59-8.22-13.58-8.87-4.57-.5-8.59.86-12.01,3.98-2.1,1.93-4.11,3.97-5.55,6.43-.56.95-1.95,3.95-1.95,3.95Z"/>
            <path class="cls-2" d="m264.71,47.04c2.05,2.68,4.02,5.42,5.85,8.24,2.41,3.71,4.49,7.59,5.76,11.85.76,2.55,1.26,5.15,1.2,7.83-.08,3.43-1.11,6.54-3.21,9.26-2.17,2.8-4.84,4.98-8.18,6.23-4.31,1.62-8.27.92-11.81-2.05-.21-.18-.41-.36-.61-.55l-1.76-1.99c-.19-.28-.37-.56-.56-.84-.87-1.26-1.58-2.61-1.94-4.11-.59-2.44-.16-4.74,1.01-6.92,1.05-1.96,2.5-3.61,4.16-5.07.95-.84,1.91-1.68,2.97-2.38,2.08-1.39,3.42-2.29,5.88-2.63.99-.14,1.24-.19,1.91.59.54.64,1.58,1.8,2.62,2.98.09.11.18.22.26.34.31.47.37.97.07,1.47-.28.46-.85.67-1.42.55-.19-.04-.38-.11-.57-.18-1.81-.61-3.64-1.17-5.55-1.43-.86-.11-1.75-.23-2.61-.1-.45.07-.78.25-1.23.58-.69.52-1.22,1.22-1.8,1.85-1.68,1.82-2.69,3.92-2.77,6.43-.04,1.37.03,2.72.68,3.97.93,1.79,2.27,3.26,3.84,4.47,2.01,1.55,4.31,1.83,6.72,1.01,1.48-.51,2.77-1.35,3.98-2.33,1.69-1.38,3.1-2.98,4.1-4.93,1.54-2.99,1.91-6.18,1.53-9.48-.32-2.71-1.11-5.31-2.04-7.87-1.6-4.38-3.66-8.54-6.08-12.52-.39-.64-.8-1.26-1.24-1.94l-9.8-12.7c-.61-.79-1.23-1.57-1.83-2.36-2.07-2.7-3.96-5.52-5.2-8.71-1.1-2.83-1.7-5.76-1.52-8.82.19-3.27,1.34-6.2,3.28-8.82,1.03-1.4,2.18-2.69,3.56-3.77,3.06-2.42,6.5-3.58,10.43-3.47,4.18.13,8.05,1.25,11.74,3.16,3.66,1.9,6.86,4.37,9.65,7.4.29.32.58.64.85.97.49.59.45,1.37-.13,1.87-2.4,2.09-4.81,4.17-7.22,6.25-1.75,1.51-3.5,3.02-5.25,4.52-2.4,2.06-4.79,4.13-7.2,6.17-2.12,1.8-4.26,3.59-6.39,5.38-.64.54-1.3,1.06-1.96,1.59l7.84,10.99Zm-9.2-13.35c1.88-1.81,3.76-3.61,5.63-5.43,2.67-2.6,5.3-5.23,7.98-7.81,2.27-2.19,4.6-4.34,6.88-6.52,1.33-1.26,2.64-2.54,3.94-3.84.95-.95.81-2.39-.26-3.06-1.09-.69-2.14-1.45-3.27-2.07-2.83-1.57-5.83-2.64-9.1-2.66-6.06-.04-10.91,2.46-14.48,7.33-2.72,3.71-3.55,7.87-2.56,12.39.62,2.79,1.38,5.55,2.79,8.02.54.96,2.45,3.66,2.45,3.66Z"/>
          </g>
          <path class="cls-4" d="m432.66,67.93V-67.93c0-5.36-2.86-10.31-7.5-12.99l-117.66-67.93c-4.64-2.68-10.36-2.68-15,0l-117.66,67.93c-4.64,2.68-7.5,7.63-7.5,12.99V67.93c0,5.36,2.86,10.31,7.5,12.99l117.66,67.93c4.64,2.68,10.36,2.68,15,0l117.66-67.93c4.64-2.68,7.5-7.63,7.5-12.99Z"/>
        </g>
        <g>
          <g>
            <g>
              <path class="cls-2" d="m-7.02,105.26s1.43.83,3.96.98c2.52.16,5.04.11,7.56-.1,3.12-.26,6.13-.92,8.98-2.26,3.19-1.5,5.85-3.61,7.65-6.68,1.87-3.19,2.74-6.65,2.61-10.37-.08-2.26-.59-4.39-1.65-6.39-1.13-2.12-2.7-3.9-4.4-5.57-2.41-2.37-5.34-3.96-8.39-5.3-3.66-1.61-7.52-2.49-11.52-2.73-.84-.05-1.44.45-1.5,1.28l-.74,9.71-.08,1.1c-.24.92-1.52,1.72-1.72,2.62,1.59.13,5.08.4,6.67.53-.06-.88-1.18-1.84-1.16-2.72l.02-.24c.21-2.11.72-8.06.83-8.55.27-1.26,2.31-1.77,3.34-1.44,1.66.54,3.3,1.14,4.85,1.95,2.95,1.53,5.51,3.54,7.33,6.36,2.18,3.37,2.99,7.09,2.69,11.07-.21,2.77-1.14,5.3-2.6,7.64-1.62,2.59-3.95,4.35-6.69,5.6-3.26,1.48-6.71,2.28-10.22,2.94-4.53.85-5.81.57-5.81.57Z"/>
              <path class="cls-2" d="m4.61,91.87s-1.43-.83-3.96-.98-5.04-.11-7.56.1c-3.12.26-6.13.92-8.98,2.26-3.19,1.5-5.85,3.61-7.65,6.68-1.87,3.19-2.74,6.65-2.61,10.37.08,2.26.59,4.39,1.65,6.39,1.13,2.12,2.7,3.9,4.4,5.57,2.41,2.37,5.34,3.96,8.39,5.3,3.66,1.61,7.52,2.49,11.52,2.73.84.05,1.44-.45,1.5-1.28l.74-9.71.08-1.1c.24-.92,1.52-1.72,1.72-2.62-1.59-.13-5.08-.4-6.67-.53.06.88,1.18,1.84,1.16,2.72l-.02.24c-.21,2.11-.72,8.06-.83,8.55-.27,1.26-2.31,1.77-3.34,1.44-1.66-.54-3.3-1.14-4.85-1.95-2.95-1.53-5.51-3.54-7.33-6.36-2.18-3.37-2.99-7.09-2.69-11.07.21-2.77,1.14-5.3,2.6-7.64,1.62-2.59,3.95-4.35,6.69-5.6,3.26-1.48,6.71-2.28,10.22-2.94,4.53-.85,5.81-.57,5.81-.57Z"/>
            </g>
            <g>
              <path class="cls-2" d="m93.19,54.33s1.43-.82,2.83-2.94c1.39-2.1,2.61-4.31,3.69-6.59,1.34-2.83,2.27-5.77,2.53-8.91.3-3.51-.2-6.87-1.96-9.97-1.83-3.22-4.39-5.7-7.67-7.44-1.99-1.05-4.1-1.69-6.36-1.77-2.4-.08-4.73.39-7.03,1.03-3.26.9-6.09,2.64-8.78,4.62-3.23,2.37-5.92,5.27-8.12,8.61-.47.71-.33,1.47.36,1.94l8.04,5.49.91.62c.68.66.73,2.17,1.41,2.8.9-1.31,2.89-4.2,3.79-5.51-.79-.39-2.19.1-2.94-.36l-.2-.14c-1.72-1.24-6.62-4.66-6.99-4.99-.96-.87-.38-2.88.43-3.61,1.3-1.17,2.64-2.28,4.11-3.23,2.8-1.79,5.82-3,9.17-3.17,4.01-.2,7.64.96,10.93,3.2,2.29,1.56,4.02,3.63,5.31,6.07,1.43,2.7,1.79,5.59,1.5,8.6-.35,3.57-1.38,6.95-2.57,10.32-1.53,4.34-2.42,5.32-2.42,5.32Z"/>
              <path class="cls-2" d="m87.4,37.56s-1.43.82-2.83,2.94c-1.39,2.1-2.61,4.31-3.69,6.59-1.34,2.83-2.27,5.77-2.53,8.91-.3,3.51.2,6.87,1.96,9.97,1.83,3.22,4.39,5.7,7.67,7.44,1.99,1.05,4.1,1.69,6.36,1.77,2.4.08,4.73-.39,7.03-1.03,3.26-.9,6.09-2.64,8.78-4.62,3.23-2.37,5.92-5.27,8.12-8.61.47-.71.33-1.47-.36-1.94l-8.04-5.49-.91-.62c-.68-.66-.73-2.17-1.41-2.8-.9,1.31-2.89,4.2-3.79,5.51.79.39,2.19-.1,2.94.36l.2.14c1.72,1.24,6.62,4.66,6.99,4.99.96.87.38,2.88-.43,3.61-1.3,1.17-2.64,2.28-4.11,3.23-2.8,1.79-5.82,3-9.17,3.17-4.01.2-7.64-.96-10.93-3.2-2.29-1.56-4.02-3.63-5.31-6.07-1.43-2.7-1.79-5.59-1.5-8.6.35-3.57,1.38-6.95,2.57-10.32,1.53-4.34,2.42-5.32,2.42-5.32Z"/>
            </g>
            <path class="cls-2" d="m23.58,54c3.34-.44,6.7-.77,10.07-.95,4.42-.23,8.81-.09,13.14.93,2.59.61,5.09,1.48,7.38,2.87,2.93,1.78,5.11,4.23,6.41,7.41,1.34,3.28,1.89,6.68,1.31,10.19-.76,4.54-3.34,7.62-7.68,9.21-.26.09-.52.17-.78.26l-2.6.53c-.34.02-.67.04-1.01.07-1.53.12-3.05.07-4.53-.37-2.41-.71-4.18-2.23-5.49-4.34-1.18-1.89-1.88-3.97-2.32-6.14-.25-1.24-.5-2.5-.58-3.76-.16-2.5-.27-4.1.66-6.41.38-.93.46-1.17,1.47-1.35.82-.15,2.35-.47,3.89-.78.14-.03.28-.05.43-.06.56-.03,1.03.16,1.31.67.26.47.16,1.07-.24,1.51-.13.15-.29.27-.44.41-1.44,1.26-2.84,2.57-4.01,4.09-.53.69-1.08,1.4-1.39,2.21-.16.42-.18.8-.11,1.35.11.85.45,1.66.71,2.49.74,2.36,2.06,4.29,4.19,5.61,1.16.72,2.37,1.34,3.78,1.4,2.02.09,3.96-.33,5.79-1.09,2.35-.97,3.74-2.82,4.23-5.32.3-1.54.22-3.07-.03-4.61-.35-2.15-1.03-4.18-2.22-6.02-1.83-2.83-4.4-4.75-7.45-6.06-2.51-1.08-5.16-1.69-7.84-2.16-4.59-.81-9.23-1.1-13.89-.99-.75.02-1.5.06-2.3.1l-15.9,2.14c-.99.13-1.97.28-2.96.41-3.37.44-6.75.67-10.14.15-3.01-.46-5.84-1.41-8.39-3.09-2.74-1.8-4.7-4.26-6-7.25-.7-1.59-1.24-3.23-1.49-4.97-.57-3.86.15-7.42,2.21-10.76,2.2-3.56,5.1-6.34,8.61-8.58,3.48-2.22,7.22-3.76,11.24-4.66.42-.09.84-.18,1.27-.25.76-.13,1.41.3,1.55,1.05.61,3.13,1.21,6.25,1.8,9.38.43,2.27.86,4.54,1.29,6.81.59,3.11,1.18,6.21,1.75,9.32.5,2.74.98,5.48,1.46,8.23.14.83.26,1.66.39,2.49l13.44-1.3Zm-16.16,1.29c-.63-2.53-1.25-5.06-1.89-7.59-.92-3.61-1.88-7.21-2.77-10.82-.76-3.07-1.46-6.15-2.2-9.22-.43-1.78-.88-3.56-1.36-5.33-.35-1.3-1.67-1.9-2.78-1.31-1.14.6-2.32,1.13-3.43,1.79-2.78,1.66-5.2,3.74-6.85,6.55-3.07,5.23-3.32,10.68-.89,16.2,1.85,4.21,5.04,7.01,9.45,8.41,2.72.86,5.5,1.57,8.34,1.59,1.1,0,4.4-.29,4.4-.29Z"/>
            <path class="cls-2" d="m58.08,9.07c1.29-3.12,2.68-6.19,4.21-9.19,2.01-3.94,4.33-7.68,7.38-10.92,1.83-1.94,3.83-3.67,6.18-4.96,3.01-1.65,6.22-2.31,9.63-1.85,3.51.48,6.73,1.7,9.48,3.97,3.56,2.93,4.93,6.7,4.13,11.25-.05.27-.11.53-.17.8l-.85,2.52c-.15.3-.3.6-.45.91-.66,1.39-1.47,2.67-2.59,3.74-1.82,1.73-4.02,2.51-6.5,2.59-2.23.07-4.38-.36-6.47-1.06-1.2-.4-2.42-.82-3.55-1.38-2.24-1.11-3.69-1.82-5.22-3.78-.62-.79-.79-.98-.44-1.95.28-.79.76-2.27,1.27-3.76.05-.14.1-.27.16-.4.26-.5.65-.81,1.23-.8.54.01,1.01.4,1.19.96.06.19.09.39.13.58.38,1.88.8,3.74,1.54,5.52.33.8.67,1.63,1.22,2.31.28.35.6.55,1.12.77.79.34,1.67.44,2.51.63,2.41.54,4.74.36,6.95-.82,1.21-.65,2.34-1.38,3.1-2.57,1.08-1.7,1.69-3.6,1.95-5.56.33-2.52-.57-4.65-2.49-6.33-1.18-1.03-2.55-1.73-4.01-2.28-2.04-.78-4.13-1.2-6.32-1.09-3.36.17-6.31,1.43-8.98,3.42-2.19,1.63-4.05,3.62-5.79,5.71-3,3.57-5.56,7.44-7.8,11.53-.36.66-.69,1.33-1.06,2.04l-6.09,14.84c-.38.92-.74,1.85-1.12,2.76-1.31,3.14-2.8,6.18-4.94,8.86-1.9,2.37-4.14,4.35-6.88,5.72-2.93,1.47-6.04,1.94-9.28,1.57-1.73-.2-3.42-.55-5.05-1.19-3.63-1.44-6.36-3.84-8.22-7.3-1.98-3.68-2.94-7.59-3.13-11.74-.18-4.12.35-8.13,1.59-12.06.13-.41.26-.82.41-1.22.27-.72.96-1.07,1.68-.82,3.01,1.04,6.02,2.08,9.03,3.13,2.18.76,4.36,1.52,6.54,2.29,2.98,1.05,5.97,2.09,8.95,3.15,2.62.94,5.24,1.89,7.86,2.85.79.29,1.57.6,2.35.9l5.59-12.29ZM18.03,29.19c3,5.27,7.59,8.22,13.58,8.87,4.57.5,8.59-.86,12.01-3.98,2.1-1.93,4.11-3.97,5.55-6.43.56-.95,1.95-3.95,1.95-3.95-2.51-.72-5.01-1.45-7.52-2.16-3.58-1.01-7.18-1.98-10.76-3.01-3.04-.87-6.05-1.81-9.09-2.7-1.76-.52-3.52-1.02-5.29-1.49-1.3-.34-2.48.5-2.52,1.76-.05,1.29-.18,2.58-.16,3.87.05,3.23.63,6.37,2.25,9.21"/>
            <path class="cls-2" d="m36.62-47.27c-2.05-2.68-4.02-5.42-5.85-8.24-2.41-3.71-4.49-7.59-5.76-11.85-.76-2.55-1.26-5.15-1.2-7.83.08-3.43,1.11-6.54,3.21-9.26,2.17-2.8,4.84-4.98,8.18-6.23,4.31-1.62,8.27-.92,11.81,2.05.21.18.41.36.61.55.59.66,1.17,1.33,1.76,1.99.19.28.37.56.56.84.87,1.26,1.58,2.61,1.94,4.11.59,2.44.16,4.74-1.01,6.92-1.05,1.96-2.5,3.61-4.16,5.07-.95.84-1.91,1.68-2.97,2.38-2.08,1.39-3.42,2.29-5.88,2.63-.99.14-1.24.19-1.91-.59-.54-.64-1.58-1.8-2.62-2.98-.09-.11-.18-.22-.26-.34-.31-.47-.37-.97-.07-1.47.28-.46.85-.67,1.42-.55.19.04.38.11.57.18,1.81.61,3.64,1.17,5.55,1.43.86.11,1.75.23,2.61.1.45-.07.78-.25,1.23-.58.69-.52,1.22-1.22,1.8-1.85,1.68-1.82,2.69-3.92,2.77-6.43.04-1.37-.03-2.72-.68-3.97-.93-1.79-2.27-3.26-3.84-4.47-2.01-1.55-4.31-1.83-6.72-1.01-1.48.51-2.77,1.35-3.98,2.33-1.69,1.38-3.1,2.98-4.1,4.93-1.54,2.99-1.91,6.18-1.53,9.48.32,2.71,1.11,5.31,2.04,7.87,1.6,4.38,3.66,8.54,6.08,12.52.39.64.8,1.26,1.24,1.94l9.8,12.7c.61.79,1.23,1.57,1.83,2.36,2.07,2.7,3.96,5.52,5.2,8.71,1.1,2.83,1.7,5.76,1.52,8.82-.19,3.27-1.34,6.2-3.28,8.82-1.03,1.4-2.18,2.69-3.56,3.77C45.91,0,42.47,1.16,38.54,1.04c-4.18-.13-8.05-1.25-11.74-3.16-3.66-1.9-6.86-4.37-9.65-7.4-.29-.32-.58-.64-.85-.97-.49-.59-.45-1.37.13-1.87,2.4-2.09,4.81-4.17,7.22-6.25,1.75-1.51,3.5-3.02,5.25-4.52,2.4-2.06,4.79-4.13,7.2-6.17,2.12-1.8,4.26-3.59,6.39-5.38.64-.54,1.3-1.06,1.96-1.59l-7.84-10.99Zm9.2,13.35c-1.88,1.81-3.76,3.61-5.63,5.43-2.67,2.6-5.3,5.23-7.98,7.81-2.27,2.19-4.6,4.34-6.88,6.52-1.33,1.26-2.64,2.54-3.94,3.84-.95.95-.81,2.39.26,3.06,1.09.69,2.14,1.45,3.27,2.07,2.83,1.57,5.83,2.64,9.1,2.66,6.06.04,10.91-2.46,14.48-7.33,2.72-3.71,3.55-7.87,2.56-12.39-.62-2.79-1.38-5.55-2.79-8.02-.54-.96-2.45-3.66-2.45-3.66Z"/>
          </g>
          <path class="cls-4" d="m132.66,67.93V-67.93c0-5.36-2.86-10.31-7.5-12.99L7.5-148.85c-4.64-2.68-10.36-2.68-15,0l-117.66,67.93c-4.64,2.68-7.5,7.63-7.5,12.99V67.93c0,5.36,2.86,10.31,7.5,12.99L-7.5,148.85c4.64,2.68,10.36,2.68,15,0l117.66-67.93c4.64-2.68,7.5-7.63,7.5-12.99Z"/>
        </g>
      </g>
    </pattern>
  </defs>
  <rect class="cls-3" width="1920" height="1080"/>
</svg>